<svg width="18" height="12" viewBox="0 0 18 12" fill="none" xmlns="http://www.w3.org/2000/svg">
<path fill-rule="evenodd" clip-rule="evenodd" d="M17 12C17.5523 12 18 11.5523 18 11C18 10.4477 17.5523 10 17 10H1C0.447716 10 0 10.4477 0 11C0 11.5523 0.447715 12 1 12H17ZM17 7C17.5523 7 18 6.55228 18 6C18 5.44772 17.5523 5 17 5H1C0.447716 5 0 5.44772 0 6C0 6.55228 0.447715 7 1 7H17ZM0 1C0 1.55228 0.447715 2 1 2H17C17.5523 2 18 1.55228 18 1C18 0.447715 17.5523 0 17 0H1C0.447716 0 0 0.447715 0 1Z" fill="#999999"/>
<mask id="mask0_201_2601" style="mask-type:luminance" maskUnits="userSpaceOnUse" x="0" y="0" width="18" height="12">
<path fill-rule="evenodd" clip-rule="evenodd" d="M17 12C17.5523 12 18 11.5523 18 11C18 10.4477 17.5523 10 17 10H1C0.447716 10 0 10.4477 0 11C0 11.5523 0.447715 12 1 12H17ZM17 7C17.5523 7 18 6.55228 18 6C18 5.44772 17.5523 5 17 5H1C0.447716 5 0 5.44772 0 6C0 6.55228 0.447715 7 1 7H17ZM0 1C0 1.55228 0.447715 2 1 2H17C17.5523 2 18 1.55228 18 1C18 0.447715 17.5523 0 17 0H1C0.447716 0 0 0.447715 0 1Z" fill="white"/>
</mask>
<g mask="url(#mask0_201_2601)">
<rect x="-3" y="-6" width="24" height="24" fill="#999999"/>
</g>
</svg>
