<svg width="168" height="16" viewBox="0 0 168 16" fill="none" xmlns="http://www.w3.org/2000/svg">
<path d="M0.316406 8.15025C0.316406 5.9548 3.36771 4.76405 7.53534 4.76405C10.1326 4.76405 12.7641 5.23321 13.7788 6.83562C14.2735 7.61695 13.465 8.42933 12.5402 8.42933C11.6154 8.42933 10.791 7.51446 9.92612 7.187C9.30932 6.95347 8.44972 6.90368 7.53534 6.90368C5.43292 6.90368 3.83285 7.16416 3.83285 8.33631C3.83285 10.6806 14.2891 7.74093 14.2891 12.3365C14.2891 14.5878 10.8657 15.7041 7.51674 15.7041C3.58897 15.7041 1.80389 14.8101 1.02076 13.8322C0.407335 13.0662 1.24216 12.1876 2.22347 12.1876C3.20478 12.1876 4.17074 13.1166 5.11388 13.3877C5.76308 13.5742 6.6117 13.6017 7.42371 13.6017C9.54474 13.6017 11.0518 13.1737 11.0518 12.3365C11.0518 9.80614 0.316406 13.0435 0.316406 8.15025Z" fill="#007AFF"/>
<path d="M15.8488 6.70564C15.8488 5.77719 16.6015 5.02453 17.5299 5.02453C18.4605 5.02453 19.214 5.78046 19.211 6.711L19.1978 10.8667C19.1978 12.6528 20.5002 13.8994 22.3607 13.8994C25.3376 13.8994 26.733 11.369 26.733 10.3643L26.7457 6.73324C26.749 5.78858 27.5157 5.02453 28.4604 5.02453C29.4074 5.02453 30.175 5.79222 30.175 6.73921V13.7877C30.175 14.7331 29.4087 15.4994 28.4633 15.4994H27.2748C26.9859 15.4994 26.7516 15.2652 26.7516 14.9762C26.7516 14.4585 25.9615 14.1664 25.539 14.4655C24.5979 15.1319 23.2757 15.6297 21.6165 15.6297C19.049 15.6297 15.8488 14.1784 15.8488 10.8667V6.70564Z" fill="#007AFF"/>
<path d="M31.8979 10.4201C31.8979 7.21997 34.7818 5.34082 38.4285 5.34082C38.8632 5.34082 39.3186 5.39277 39.7766 5.48624C41.4437 5.82656 44.0845 4.50649 44.0845 2.80494V2.68953C44.0845 1.73905 44.8551 0.968526 45.8056 0.968526C46.756 0.968526 47.5266 1.73905 47.5266 2.68953V13.7598C47.5266 14.7103 46.756 15.4808 45.8056 15.4808H44.6332C44.3302 15.4808 44.0845 15.2352 44.0845 14.9322C44.0845 14.4029 43.3312 14.1207 42.9003 14.4281C41.6923 15.2901 40.162 15.6483 38.6517 15.6483C34.7818 15.6483 31.8979 13.2296 31.8979 10.4201ZM35.3586 10.4201C35.3586 12.69 37.3494 13.7319 39.7681 13.7319C42.2798 13.7319 44.0845 11.7969 44.0845 10.5876C44.0845 9.04331 42.2054 7.20137 39.3587 7.20137C36.847 7.20137 35.3586 8.41073 35.3586 10.4201Z" fill="#007AFF"/>
<path d="M49.3224 10.2713C49.3224 6.75484 52.9133 4.72684 56.4856 4.72684C59.9834 4.72684 63.3324 6.6432 63.3324 10.2713C63.3324 13.8621 59.8904 15.7785 56.3739 15.7785C52.8203 15.7785 49.3224 13.8249 49.3224 10.2713ZM56.3367 6.69902C54.0854 6.69902 52.8947 8.46654 52.8947 10.2713C52.8947 12.3179 54.3087 13.9552 56.3367 13.9552C58.3647 13.9552 59.7601 12.3179 59.7601 10.2713C59.7601 8.26188 58.5694 6.69902 56.3367 6.69902Z" fill="#007AFF"/>
<path d="M71.1049 7.23858C70.4877 7.23858 69.9918 6.72994 70.0075 6.11296C70.0227 5.51776 70.5095 5.04313 71.1049 5.04313H71.2509C71.9369 5.04313 72.4941 4.48934 72.4984 3.80342L72.5018 3.25693C72.5063 2.54036 72.9538 1.90135 73.6256 1.65212C74.7572 1.23234 75.9586 2.07586 75.948 3.28274L75.9476 3.33333C75.9394 4.2752 76.7006 5.04313 77.6425 5.04313H78.4824C79.2375 5.04313 79.7671 5.78785 79.5193 6.50114C79.3659 6.94263 78.9498 7.23858 78.4824 7.23858H77.848C76.7491 7.23858 75.8582 8.12942 75.8582 9.22832V11.2388C75.8582 12.3923 76.2862 13.304 77.7002 13.304H79.7375C80.3386 13.304 80.8259 13.7913 80.8259 14.3924C80.8259 14.9935 80.3386 15.4808 79.7375 15.4808H76.6025C73.9977 15.4808 72.4348 13.5086 72.4348 11.0899V8.45094C72.4348 7.78137 71.892 7.23858 71.2225 7.23858H71.1049Z" fill="#007AFF"/>
<path d="M88.886 15.7227C85.0347 15.7227 81.8345 13.6389 81.8345 10.3829C81.8345 7.10834 85.1277 5.00592 88.979 5.00592C92.5141 5.00592 95.8073 6.73623 95.8259 10.4201C95.8259 10.9523 95.3459 11.3137 94.8137 11.3155C93.7333 11.3191 91.9422 11.3266 90.2085 11.3337C87.6482 11.3442 86.2886 13.9738 88.8488 13.9738C89.9239 13.9738 90.9751 13.6622 91.7907 13.0582C92.1656 12.7806 92.6241 12.606 93.0843 12.6827C94.0289 12.8401 94.4733 13.8803 93.684 14.4226C92.4914 15.242 90.7899 15.7227 88.886 15.7227ZM88.8488 6.86647C88.1758 6.86647 87.5935 7.0194 87.1107 7.27634C85.4698 8.1496 86.9604 10.0067 88.8192 10.0015C90.6867 9.99637 92.2208 8.08501 90.5523 7.24638C90.0647 7.00134 89.4881 6.86647 88.8488 6.86647Z" fill="#007AFF"/>
<path d="M96.7642 12.4295C96.7642 10.1783 99.462 9.02471 101.974 9.02471C103.575 9.02471 105.222 9.50018 106.513 10.149C106.932 10.3593 107.481 10.0698 107.481 9.60148C107.481 8.07583 106.848 7.49906 105.676 7.49906H101.383C100.876 7.49906 100.42 7.18697 100.238 6.71365C99.9268 5.90906 100.521 5.04313 101.383 5.04313H107C107.345 5.04313 107.691 5.07043 108.021 5.16937C110.085 5.7882 110.887 7.3821 110.904 9.71311V13.7784C110.904 14.7289 110.134 15.4994 109.183 15.4994H107.979C107.693 15.4994 107.462 15.2683 107.462 14.9831C107.462 14.5454 106.925 14.2737 106.535 14.4713C105.161 15.1661 103.167 15.6111 101.676 15.6111C99.5364 15.6111 96.7642 14.718 96.7642 12.4295ZM102.941 10.6992C101.676 10.6992 100.188 11.0713 100.188 12.3737C100.188 13.7691 101.843 14.011 102.811 14.011C104.968 14.011 106.823 12.8346 107.385 12.4623C107.434 12.4299 107.462 12.3756 107.462 12.3169C107.462 12.2593 107.435 12.2056 107.388 12.1728C106.956 11.8731 105.19 10.6992 102.941 10.6992Z" fill="#007AFF"/>
<path d="M112.334 10.2155C112.334 6.84787 115.702 4.68963 119.516 4.68963C122.004 4.68963 124.503 5.61218 125.672 7.36279C126.231 8.19926 125.442 9.12257 124.436 9.12806C123.575 9.13277 122.886 8.41831 122.314 7.7744C121.678 7.05866 120.611 6.6432 119.367 6.6432C116.892 6.6432 115.646 8.54097 115.646 10.2155C115.646 12.4109 117.171 13.8994 119.423 13.8994C120.753 13.8994 121.855 13.2897 122.466 12.413C122.955 11.7095 123.643 11.0005 124.5 11.0052C125.492 11.0106 126.259 11.9262 125.734 12.7683C124.562 14.6517 122.069 15.7227 119.404 15.7227C115.609 15.7227 112.334 13.5831 112.334 10.2155Z" fill="#007AFF"/>
<path d="M128.054 2.69884C128.054 1.75349 128.821 0.987131 129.766 0.987131C130.711 0.987131 131.478 1.75349 131.478 2.69884V2.88281C131.478 4.55051 133.734 5.61049 135.386 5.38239C135.672 5.3429 135.964 5.32221 136.259 5.32221C139.441 5.32221 142.38 7.01532 142.38 10.0294V13.797C142.38 14.727 141.627 15.4808 140.697 15.4808C139.767 15.4808 139.013 14.727 139.013 13.797V10.0294C139.013 9.35961 138.529 7.05253 135.608 7.05253C133.509 7.05253 132.042 8.3153 131.584 9.72003C131.494 9.99492 131.478 10.2864 131.478 10.5756V13.7691C131.478 14.7145 130.711 15.4808 129.766 15.4808C128.821 15.4808 128.054 14.7145 128.054 13.7691V2.69884Z" fill="#007AFF"/>
<path d="M152.24 2.86629C153.185 2.86629 153.952 3.63264 153.952 4.57799V13.7691C153.952 14.7145 153.185 15.4808 152.24 15.4808C151.294 15.4808 150.528 14.7145 150.528 13.7691V4.57799C150.528 3.63264 151.294 2.86629 152.24 2.86629Z" fill="#007AFF"/>
<path d="M160.3 7.72232C160.3 6.46871 159.284 5.45245 158.03 5.45245H157.072C156.348 5.45245 155.76 4.86519 155.76 4.14076C155.76 3.41634 156.348 2.82908 157.072 2.82908H166.617C167.341 2.82908 167.928 3.41634 167.928 4.14076C167.928 4.86519 167.341 5.45245 166.617 5.45245H165.668C164.419 5.45245 163.407 6.46454 163.407 7.71302V13.9273C163.407 14.7853 162.712 15.4808 161.854 15.4808C160.996 15.4808 160.3 14.7853 160.3 13.9273V7.72232Z" fill="#007AFF"/>
</svg>
