<svg width="109" height="11" viewBox="0 0 109 11" fill="none" xmlns="http://www.w3.org/2000/svg">
<path d="M0.204 5.272C0.204 3.856 2.172 3.088 4.86 3.088C6.996 3.088 9.168 3.58 9.168 5.452H7.008C7.008 4.588 6 4.468 4.86 4.468C3.504 4.468 2.472 4.636 2.472 5.392C2.472 6.904 9.216 5.008 9.216 7.972C9.216 9.424 7.008 10.144 4.848 10.144C0.828 10.144 0.288 8.692 0.288 7.876H2.58C2.58 8.716 3.732 8.788 4.788 8.788C6.156 8.788 7.128 8.512 7.128 7.972C7.128 6.34 0.204 8.428 0.204 5.272ZM10.2219 3.256H12.3939L12.3819 7.024C12.3819 8.176 13.2219 8.98 14.4219 8.98C16.3419 8.98 17.2419 7.348 17.2419 6.7L17.2539 3.256H19.4619V10.012H17.2539V8.56C16.7499 9.316 15.6099 10.096 13.9419 10.096C12.2859 10.096 10.2219 9.16 10.2219 7.024V3.256ZM20.5732 6.736C20.5732 4.672 22.4332 3.46 24.7852 3.46C26.1172 3.46 27.7492 4.216 28.4332 5.008V0.64H30.6532V10H28.4332V8.572C27.6172 9.676 26.2612 10.108 24.9292 10.108C22.4332 10.108 20.5732 8.548 20.5732 6.736ZM22.8052 6.736C22.8052 8.2 24.0892 8.872 25.6492 8.872C27.2692 8.872 28.4332 7.624 28.4332 6.844C28.4332 5.848 27.2212 4.66 25.3852 4.66C23.7652 4.66 22.8052 5.44 22.8052 6.736ZM31.8114 6.64C31.8114 4.372 34.1274 3.064 36.4314 3.064C38.6874 3.064 40.8474 4.3 40.8474 6.64C40.8474 8.956 38.6274 10.192 36.3594 10.192C34.0674 10.192 31.8114 8.932 31.8114 6.64ZM36.3354 4.336C34.8834 4.336 34.1154 5.476 34.1154 6.64C34.1154 7.96 35.0274 9.016 36.3354 9.016C37.6434 9.016 38.5434 7.96 38.5434 6.64C38.5434 5.344 37.7754 4.336 36.3354 4.336ZM45.1343 4.684L45.1703 3.268H46.7543L46.7663 1.348L48.9983 0.52L48.9743 3.268H51.6143L51.1223 4.684H48.9263V7.264C48.9263 8.008 49.2023 8.596 50.1143 8.596H52.1303V10H49.4063C47.7263 10 46.7183 8.728 46.7183 7.168V4.684H45.1343ZM57.3288 10.156C54.8448 10.156 52.7808 8.812 52.7808 6.712C52.7808 4.6 54.9048 3.244 57.3888 3.244C59.6688 3.244 61.7928 4.36 61.8048 6.736C61.8048 6.928 61.7808 7.132 61.7328 7.312C61.0608 7.312 55.9248 7.336 55.1568 7.336C55.1928 8.26 56.0568 9.028 57.3048 9.028C58.1688 9.028 59.0088 8.716 59.5608 8.116L61.2888 8.404C60.6888 9.472 59.1528 10.156 57.3288 10.156ZM57.3048 4.444C55.9008 4.444 55.1088 5.476 55.1208 6.472L59.4648 6.46C59.4648 5.272 58.5768 4.444 57.3048 4.444ZM62.4099 8.032C62.4099 6.58 64.1499 5.836 65.7699 5.836C67.0779 5.836 68.4339 6.328 69.3099 6.916C69.3099 6.556 69.3219 6.352 69.3219 6.208C69.3219 5.224 68.9139 4.852 68.1579 4.852H64.8459L64.2339 3.268H69.3459C70.9179 3.592 71.5179 4.66 71.5299 6.28V10.012H69.3099V8.968C68.5179 9.628 66.7899 10.084 65.5779 10.084C64.1979 10.084 62.4099 9.508 62.4099 8.032ZM66.3939 6.916C65.5779 6.916 64.6179 7.156 64.6179 7.996C64.6179 8.896 65.6859 9.052 66.3099 9.052C67.7739 9.052 69.0219 8.212 69.3099 8.02V7.9C69.1539 7.792 67.9539 6.916 66.3939 6.916ZM72.4521 6.604C72.4521 4.432 74.6241 3.04 77.0841 3.04C79.1601 3.04 81.2481 4.036 81.4761 5.896L79.2801 5.908C79.1721 4.924 78.2121 4.3 76.9881 4.3C75.3921 4.3 74.5881 5.524 74.5881 6.604C74.5881 8.02 75.5721 8.98 77.0241 8.98C78.2961 8.98 79.2441 8.116 79.3161 7.108L81.5121 7.12C81.2241 9.028 79.2081 10.156 77.0121 10.156C74.5641 10.156 72.4521 8.776 72.4521 6.604ZM82.5911 0.651999H84.7991V4.732C85.5911 3.976 86.6831 3.448 87.8831 3.448C89.9351 3.448 91.8311 4.54 91.8311 6.484V10H89.6591V6.484C89.6591 6.052 89.3471 4.564 87.4631 4.564C85.9751 4.564 84.9791 5.548 84.7991 6.556V10H82.5911V0.651999ZM99.2941 1.864V10H97.0861V1.864H99.2941ZM103.389 3.532H100.461V1.84H108.309V3.532H105.393V10H103.389V3.532Z" fill="#333333"/>
</svg>
