<svg width="375" height="388" viewBox="0 0 375 388" fill="none" xmlns="http://www.w3.org/2000/svg">
<circle cx="275.177" cy="-193.739" r="426.218" transform="rotate(150.38 275.177 -193.739)" fill="#FFD948"/>
<circle cx="309.617" cy="-213.32" r="426.218" transform="rotate(150.38 309.617 -213.32)" fill="white"/>
<circle cx="333.368" cy="-226.823" r="426.218" transform="rotate(150.38 333.368 -226.823)" fill="#007AFF"/>
<path d="M156 89.3524C156 86.8635 159.55 85.5136 164.399 85.5136C167.399 85.5136 170.439 86.0381 171.637 87.8244C172.237 88.7179 171.297 89.6687 170.221 89.6687C169.145 89.6687 168.165 88.6128 167.152 88.2502C166.437 87.9942 165.449 87.9392 164.399 87.9392C161.953 87.9392 160.091 88.2345 160.091 89.5633C160.091 92.2208 172.256 88.8883 172.256 94.098C172.256 96.6501 168.273 97.9156 164.377 97.9156C159.856 97.9156 157.775 96.9235 156.849 95.8288C156.111 94.9572 157.077 93.9293 158.219 93.9293C159.36 93.9293 160.506 94.9965 161.607 95.2968C162.359 95.5018 163.335 95.5323 164.269 95.5323C166.736 95.5323 168.49 95.0471 168.49 94.098C168.49 91.2295 156 94.8995 156 89.3524Z" fill="white"/>
<path d="M174.07 87.7647C174.07 86.6845 174.946 85.8089 176.026 85.8089C177.109 85.8089 177.985 86.6884 177.982 87.7711L177.967 92.4318C177.967 94.4566 179.482 95.8697 181.646 95.8697C185.11 95.8697 186.733 93.0012 186.733 91.8623L186.748 87.7968C186.752 86.6978 187.644 85.8089 188.743 85.8089C189.844 85.8089 190.738 86.7021 190.738 87.8039V95.6922C190.738 96.792 189.846 97.6836 188.746 97.6836H187.358C187.025 97.6836 186.755 97.4137 186.755 97.0807C186.755 96.4878 185.859 96.1519 185.373 96.4913C184.277 97.2568 182.728 97.8313 180.781 97.8313C177.793 97.8313 174.07 96.1861 174.07 92.4318V87.7647Z" fill="white"/>
<path d="M192.742 91.9256C192.742 88.2978 196.097 86.1675 200.34 86.1675C200.89 86.1675 201.468 86.2372 202.048 86.3613C203.948 86.768 206.92 85.2656 206.92 83.3225V83.2131C206.92 82.1073 207.816 81.2109 208.922 81.2109C210.028 81.2109 210.924 82.1073 210.924 83.2131V95.6603C210.924 96.7661 210.028 97.6625 208.922 97.6625H207.552C207.203 97.6625 206.92 97.3797 206.92 97.0308C206.92 96.4254 206.066 96.1007 205.571 96.4489C204.161 97.4407 202.369 97.8524 200.599 97.8524C196.097 97.8524 192.742 95.1104 192.742 91.9256ZM196.768 91.9256C196.768 94.4988 199.084 95.6799 201.898 95.6799C204.82 95.6799 206.92 93.4864 206.92 92.1154C206.92 90.3648 204.734 88.2767 201.422 88.2767C198.5 88.2767 196.768 89.6476 196.768 91.9256Z" fill="white"/>
<path d="M213.014 91.7568C213.014 87.7705 217.191 85.4715 221.347 85.4715C225.417 85.4715 229.313 87.6439 229.313 91.7568C229.313 95.8275 225.308 98 221.217 98C217.083 98 213.014 95.7854 213.014 91.7568ZM221.174 87.7072C218.555 87.7072 217.17 89.7109 217.17 91.7568C217.17 94.0769 218.815 95.933 221.174 95.933C223.534 95.933 225.157 94.0769 225.157 91.7568C225.157 89.4789 223.772 87.7072 221.174 87.7072Z" fill="white"/>
<path d="M238.323 88.3189C237.623 88.3189 237.061 87.7417 237.079 87.042C237.096 86.3676 237.648 85.83 238.323 85.83H238.525C239.323 85.83 239.972 85.1856 239.977 84.3874L239.98 83.8467C239.986 83.0107 240.512 82.2665 241.298 81.9823L241.346 81.9651C242.639 81.4975 244.002 82.4703 243.99 83.8457C243.98 84.9361 244.861 85.83 245.952 85.83H246.969C247.83 85.83 248.43 86.6821 248.141 87.4924C247.965 87.988 247.495 88.3189 246.969 88.3189H246.209C244.926 88.3189 243.886 89.359 243.886 90.642V92.8536C243.886 94.1613 244.383 95.1948 246.028 95.1948H248.431C249.112 95.1948 249.665 95.7472 249.665 96.4287C249.665 97.1101 249.112 97.6625 248.431 97.6625H244.751C241.721 97.6625 239.903 95.4268 239.903 92.6849V89.7288C239.903 88.9501 239.271 88.3189 238.493 88.3189H238.323Z" fill="white"/>
<path d="M259.042 97.9367C254.561 97.9367 250.838 95.5744 250.838 91.8834C250.838 88.1712 254.67 85.7878 259.15 85.7878C263.263 85.7878 267.094 87.7494 267.116 91.9256C267.116 92.53 266.57 92.9385 265.966 92.9405C264.7 92.9446 262.572 92.9533 260.523 92.9614C257.577 92.9732 256.052 95.9541 258.999 95.9541C260.254 95.9541 261.482 95.5981 262.432 94.9082C262.861 94.5972 263.381 94.4019 263.904 94.4868C265.006 94.6658 265.514 95.878 264.581 96.4918C263.195 97.4031 261.234 97.9367 259.042 97.9367ZM258.999 87.897C258.244 87.897 257.587 88.0583 257.037 88.3311C255.1 89.2923 256.801 91.4568 258.963 91.451C261.136 91.4452 262.886 89.2171 260.917 88.2974C260.364 88.0388 259.715 87.897 258.999 87.897Z" fill="white"/>
<path d="M268.207 94.2035C268.207 91.6514 271.346 90.3437 274.268 90.3437C276.14 90.3437 278.066 90.888 279.572 91.629C280.052 91.8653 280.675 91.5325 280.675 90.9975C280.675 89.268 279.939 88.6141 278.576 88.6141H273.547C272.976 88.6141 272.463 88.2657 272.253 87.7352C271.891 86.8214 272.564 85.83 273.547 85.83H280.135C280.523 85.83 280.913 85.8602 281.286 85.968C283.7 86.6658 284.638 88.475 284.658 91.1241V95.6814C284.658 96.7872 283.762 97.6836 282.656 97.6836H281.246C280.919 97.6836 280.654 97.4186 280.654 97.0917C280.654 96.5934 280.048 96.2829 279.601 96.5048C278.002 97.3001 275.666 97.8102 273.922 97.8102C271.433 97.8102 268.207 96.7978 268.207 94.2035ZM275.394 92.2419C273.922 92.2419 272.19 92.6638 272.19 94.1402C272.19 95.7221 274.117 95.9963 275.242 95.9963C277.754 95.9963 279.914 94.6604 280.566 94.2396C280.621 94.2035 280.654 94.1423 280.654 94.0758C280.654 94.0106 280.622 93.95 280.568 93.9134C280.069 93.5753 278.012 92.2419 275.394 92.2419Z" fill="white"/>
<path d="M286.322 91.6935C286.322 87.8759 290.239 85.4293 294.677 85.4293C297.549 85.4293 300.434 86.4593 301.808 88.4147C302.482 89.3741 301.567 90.4546 300.395 90.4609C299.395 90.4662 298.592 89.6356 297.912 88.904C297.17 88.1063 295.937 87.6439 294.504 87.6439C291.625 87.6439 290.174 89.7953 290.174 91.6935C290.174 94.1824 291.949 95.8697 294.569 95.8697C296.102 95.8697 297.375 95.191 298.089 94.2118C298.675 93.4082 299.475 92.5835 300.47 92.5888C301.625 92.595 302.514 93.6659 301.882 94.6334C300.506 96.74 297.624 97.9367 294.547 97.9367C290.131 97.9367 286.322 95.5112 286.322 91.6935Z" fill="white"/>
<path d="M304.61 83.2234C304.61 82.1236 305.502 81.232 306.602 81.232C307.702 81.232 308.593 82.1236 308.593 83.2234V83.4079C308.593 85.3086 311.132 86.5184 313.011 86.2331C313.385 86.1763 313.767 86.1464 314.156 86.1464C317.858 86.1464 321.278 88.0658 321.278 91.4826V95.7036C321.278 96.7855 320.401 97.6625 319.319 97.6625C318.237 97.6625 317.36 96.7855 317.36 95.7036V91.4826C317.36 90.7233 316.797 88.1079 313.399 88.1079C310.962 88.1079 309.257 89.5333 308.72 91.1216C308.613 91.4394 308.593 91.778 308.593 92.1134V95.6711C308.593 96.7709 307.702 97.6625 306.602 97.6625C305.502 97.6625 304.61 96.7709 304.61 95.6711V83.2234Z" fill="white"/>
<path d="M332.748 83.3623C333.848 83.3623 334.739 84.2539 334.739 85.3537V95.6711C334.739 96.771 333.848 97.6625 332.748 97.6625C331.648 97.6625 330.757 96.771 330.757 95.6711V85.3537C330.757 84.2539 331.648 83.3623 332.748 83.3623Z" fill="white"/>
<path d="M342.125 88.9348C342.125 87.4764 340.943 86.294 339.485 86.294H338.331C337.509 86.294 336.844 85.6283 336.844 84.8071C336.844 83.9858 337.509 83.3201 338.331 83.3201H349.513C350.334 83.3201 351 83.9858 351 84.8071C351 85.6283 350.334 86.294 349.513 86.294H348.37C346.918 86.294 345.74 87.4715 345.74 88.924V95.8551C345.74 96.8533 344.931 97.6625 343.933 97.6625C342.934 97.6625 342.125 96.8533 342.125 95.8551V88.9348Z" fill="white"/>
</svg>
