<svg width="400" height="590" viewBox="0 0 400 590" fill="none" xmlns="http://www.w3.org/2000/svg">
<circle cx="494.403" cy="293.151" r="426.218" transform="rotate(169.892 494.403 293.151)" fill="#FFD948"/>
<circle cx="533.404" cy="286.198" r="426.218" transform="rotate(169.892 533.404 286.198)" fill="white"/>
<circle cx="560.302" cy="281.403" r="426.218" transform="rotate(169.892 560.302 281.403)" fill="#007AFF"/>
<path d="M181 295.352C181 292.864 184.55 291.514 189.399 291.514C192.399 291.514 195.439 292.038 196.637 293.824C197.237 294.718 196.297 295.669 195.221 295.669C194.145 295.669 193.165 294.613 192.152 294.25C191.437 293.994 190.449 293.939 189.399 293.939C186.953 293.939 185.091 294.234 185.091 295.563C185.091 298.221 197.256 294.888 197.256 300.098C197.256 302.65 193.273 303.916 189.377 303.916C184.856 303.916 182.775 302.924 181.849 301.829C181.111 300.957 182.077 299.929 183.219 299.929C184.36 299.929 185.506 300.997 186.607 301.297C187.359 301.502 188.335 301.532 189.269 301.532C191.736 301.532 193.49 301.047 193.49 300.098C193.49 297.23 181 300.9 181 295.352Z" fill="white"/>
<path d="M199.07 293.765C199.07 292.685 199.946 291.809 201.026 291.809C202.109 291.809 202.985 292.688 202.982 293.771L202.967 298.432C202.967 300.457 204.482 301.87 206.646 301.87C210.11 301.87 211.733 299.001 211.733 297.862L211.748 293.797C211.752 292.698 212.644 291.809 213.743 291.809C214.844 291.809 215.738 292.702 215.738 293.804V301.692C215.738 302.792 214.846 303.684 213.746 303.684H212.358C212.025 303.684 211.755 303.414 211.755 303.081C211.755 302.488 210.859 302.152 210.373 302.491C209.277 303.257 207.728 303.831 205.781 303.831C202.793 303.831 199.07 302.186 199.07 298.432V293.765Z" fill="white"/>
<path d="M217.742 297.926C217.742 294.298 221.097 292.167 225.34 292.167C225.89 292.167 226.468 292.237 227.048 292.361C228.948 292.768 231.92 291.266 231.92 289.322V289.213C231.92 288.107 232.816 287.211 233.922 287.211C235.028 287.211 235.924 288.107 235.924 289.213V301.66C235.924 302.766 235.028 303.663 233.922 303.663H232.552C232.203 303.663 231.92 303.38 231.92 303.031C231.92 302.425 231.066 302.101 230.571 302.449C229.161 303.441 227.369 303.852 225.599 303.852C221.097 303.852 217.742 301.11 217.742 297.926ZM221.768 297.926C221.768 300.499 224.084 301.68 226.898 301.68C229.82 301.68 231.92 299.486 231.92 298.115C231.92 296.365 229.734 294.277 226.422 294.277C223.5 294.277 221.768 295.648 221.768 297.926Z" fill="white"/>
<path d="M238.014 297.757C238.014 293.77 242.191 291.471 246.347 291.471C250.417 291.471 254.313 293.644 254.313 297.757C254.313 301.828 250.308 304 246.217 304C242.083 304 238.014 301.785 238.014 297.757ZM246.174 293.707C243.555 293.707 242.17 295.711 242.17 297.757C242.17 300.077 243.815 301.933 246.174 301.933C248.534 301.933 250.157 300.077 250.157 297.757C250.157 295.479 248.772 293.707 246.174 293.707Z" fill="white"/>
<path d="M263.323 294.319C262.623 294.319 262.061 293.742 262.079 293.042C262.096 292.368 262.648 291.83 263.323 291.83H263.525C264.323 291.83 264.972 291.186 264.977 290.387L264.98 289.847C264.986 289.011 265.512 288.267 266.298 287.982L266.346 287.965C267.639 287.497 269.002 288.47 268.99 289.846C268.98 290.936 269.861 291.83 270.952 291.83H271.969C272.83 291.83 273.43 292.682 273.141 293.492C272.965 293.988 272.495 294.319 271.969 294.319H271.209C269.926 294.319 268.886 295.359 268.886 296.642V298.854C268.886 300.161 269.383 301.195 271.028 301.195H273.431C274.112 301.195 274.665 301.747 274.665 302.429C274.665 303.11 274.112 303.663 273.431 303.663H269.751C266.721 303.663 264.903 301.427 264.903 298.685V295.729C264.903 294.95 264.271 294.319 263.493 294.319H263.323Z" fill="white"/>
<path d="M284.042 303.937C279.561 303.937 275.838 301.574 275.838 297.883C275.838 294.171 279.67 291.788 284.15 291.788C288.263 291.788 292.094 293.749 292.116 297.926C292.116 298.53 291.57 298.938 290.966 298.94C289.7 298.945 287.572 298.953 285.523 298.961C282.577 298.973 281.052 301.954 283.999 301.954C285.254 301.954 286.482 301.598 287.432 300.908C287.861 300.597 288.381 300.402 288.904 300.487C290.006 300.666 290.514 301.878 289.581 302.492C288.195 303.403 286.234 303.937 284.042 303.937ZM283.999 293.897C283.244 293.897 282.587 294.058 282.037 294.331C280.1 295.292 281.801 297.457 283.963 297.451C286.136 297.445 287.886 295.217 285.917 294.297C285.364 294.039 284.715 293.897 283.999 293.897Z" fill="white"/>
<path d="M293.207 300.203C293.207 297.651 296.346 296.344 299.268 296.344C301.14 296.344 303.066 296.888 304.572 297.629C305.052 297.865 305.675 297.532 305.675 296.998C305.675 295.268 304.939 294.614 303.576 294.614H298.547C297.976 294.614 297.463 294.266 297.253 293.735C296.891 292.821 297.564 291.83 298.547 291.83H305.135C305.523 291.83 305.913 291.86 306.286 291.968C308.7 292.666 309.638 294.475 309.658 297.124V301.681C309.658 302.787 308.762 303.684 307.656 303.684H306.246C305.919 303.684 305.654 303.419 305.654 303.092C305.654 302.593 305.048 302.283 304.601 302.505C303.002 303.3 300.666 303.81 298.922 303.81C296.433 303.81 293.207 302.798 293.207 300.203ZM300.394 298.242C298.922 298.242 297.19 298.664 297.19 300.14C297.19 301.722 299.117 301.996 300.242 301.996C302.754 301.996 304.914 300.66 305.566 300.24C305.621 300.204 305.654 300.142 305.654 300.076C305.654 300.011 305.622 299.95 305.568 299.913C305.069 299.575 303.012 298.242 300.394 298.242Z" fill="white"/>
<path d="M311.322 297.694C311.322 293.876 315.239 291.429 319.677 291.429C322.549 291.429 325.434 292.459 326.808 294.415C327.482 295.374 326.567 296.455 325.395 296.461C324.395 296.466 323.592 295.636 322.912 294.904C322.17 294.106 320.937 293.644 319.504 293.644C316.625 293.644 315.174 295.795 315.174 297.694C315.174 300.182 316.949 301.87 319.569 301.87C321.102 301.87 322.375 301.191 323.089 300.212C323.675 299.408 324.475 298.584 325.47 298.589C326.625 298.595 327.514 299.666 326.882 300.633C325.506 302.74 322.624 303.937 319.547 303.937C315.131 303.937 311.322 301.511 311.322 297.694Z" fill="white"/>
<path d="M329.61 289.223C329.61 288.124 330.502 287.232 331.602 287.232C332.702 287.232 333.593 288.124 333.593 289.223V289.408C333.593 291.309 336.132 292.518 338.011 292.233C338.385 292.176 338.767 292.146 339.156 292.146C342.858 292.146 346.278 294.066 346.278 297.483V301.704C346.278 302.785 345.401 303.663 344.319 303.663C343.237 303.663 342.36 302.785 342.36 301.704V297.483C342.36 296.723 341.797 294.108 338.399 294.108C335.962 294.108 334.257 295.533 333.72 297.122C333.613 297.439 333.593 297.778 333.593 298.113V301.671C333.593 302.771 332.702 303.663 331.602 303.663C330.502 303.663 329.61 302.771 329.61 301.671V289.223Z" fill="white"/>
<path d="M357.748 289.362C358.848 289.362 359.739 290.254 359.739 291.354V301.671C359.739 302.771 358.848 303.663 357.748 303.663C356.648 303.663 355.757 302.771 355.757 301.671V291.354C355.757 290.254 356.648 289.362 357.748 289.362Z" fill="white"/>
<path d="M367.125 294.935C367.125 293.476 365.943 292.294 364.485 292.294H363.331C362.509 292.294 361.844 291.628 361.844 290.807C361.844 289.986 362.509 289.32 363.331 289.32H374.513C375.334 289.32 376 289.986 376 290.807C376 291.628 375.334 292.294 374.513 292.294H373.37C371.918 292.294 370.74 293.472 370.74 294.924V301.855C370.74 302.853 369.931 303.663 368.933 303.663C367.934 303.663 367.125 302.853 367.125 301.855V294.935Z" fill="white"/>
</svg>
