<svg width="100" height="100" viewBox="0 0 100 100" fill="none" xmlns="http://www.w3.org/2000/svg">
<circle cx="50" cy="50" r="50" fill="white"/>
<path fill-rule="evenodd" clip-rule="evenodd" d="M50 50C52.7623 50 55 47.7623 55 45C55 42.2377 52.7623 40 50 40C47.2377 40 45 42.2377 45 45C45 47.7623 47.2377 50 50 50ZM50 42C51.6577 42 53 43.3423 53 45C53 46.6577 51.6577 48 50 48C48.3423 48 47 46.6577 47 45C47 43.3423 48.3423 42 50 42ZM59 59C59 59.5523 58.5523 60 58 60C57.4477 60 57 59.5523 57 59V57C57 55.5399 53.156 54 50 54C46.844 54 43 55.5399 43 57V59C43 59.5523 42.5523 60 42 60C41.4477 60 41 59.5523 41 59V57C41 53.9353 45.831 52 50 52C54.169 52 59 53.9353 59 57V59Z" fill="#999999"/>
<mask id="mask0_67_8103" style="mask-type:luminance" maskUnits="userSpaceOnUse" x="41" y="40" width="18" height="20">
<path fill-rule="evenodd" clip-rule="evenodd" d="M50 50C52.7623 50 55 47.7623 55 45C55 42.2377 52.7623 40 50 40C47.2377 40 45 42.2377 45 45C45 47.7623 47.2377 50 50 50ZM50 42C51.6577 42 53 43.3423 53 45C53 46.6577 51.6577 48 50 48C48.3423 48 47 46.6577 47 45C47 43.3423 48.3423 42 50 42ZM59 59C59 59.5523 58.5523 60 58 60C57.4477 60 57 59.5523 57 59V57C57 55.5399 53.156 54 50 54C46.844 54 43 55.5399 43 57V59C43 59.5523 42.5523 60 42 60C41.4477 60 41 59.5523 41 59V57C41 53.9353 45.831 52 50 52C54.169 52 59 53.9353 59 57V59Z" fill="white"/>
</mask>
<g mask="url(#mask0_67_8103)">
</g>
</svg>
