<svg width="48" height="48" viewBox="0 0 48 48" fill="none" xmlns="http://www.w3.org/2000/svg">
<circle cx="24" cy="24" r="24" fill="#E7E7E7"/>
<path fill-rule="evenodd" clip-rule="evenodd" d="M24 24C26.7623 24 29 21.7623 29 19C29 16.2377 26.7623 14 24 14C21.2377 14 19 16.2377 19 19C19 21.7623 21.2377 24 24 24ZM24 16C25.6577 16 27 17.3423 27 19C27 20.6577 25.6577 22 24 22C22.3423 22 21 20.6577 21 19C21 17.3423 22.3423 16 24 16ZM33 33C33 33.5523 32.5523 34 32 34C31.4477 34 31 33.5523 31 33V31C31 29.5399 27.156 28 24 28C20.844 28 17 29.5399 17 31V33C17 33.5523 16.5523 34 16 34C15.4477 34 15 33.5523 15 33V31C15 27.9353 19.831 26 24 26C28.169 26 33 27.9353 33 31V33Z" fill="#999999"/>
<mask id="mask0_124_2582" style="mask-type:luminance" maskUnits="userSpaceOnUse" x="15" y="14" width="18" height="20">
<path fill-rule="evenodd" clip-rule="evenodd" d="M24 24C26.7623 24 29 21.7623 29 19C29 16.2377 26.7623 14 24 14C21.2377 14 19 16.2377 19 19C19 21.7623 21.2377 24 24 24ZM24 16C25.6577 16 27 17.3423 27 19C27 20.6577 25.6577 22 24 22C22.3423 22 21 20.6577 21 19C21 17.3423 22.3423 16 24 16ZM33 33C33 33.5523 32.5523 34 32 34C31.4477 34 31 33.5523 31 33V31C31 29.5399 27.156 28 24 28C20.844 28 17 29.5399 17 31V33C17 33.5523 16.5523 34 16 34C15.4477 34 15 33.5523 15 33V31C15 27.9353 19.831 26 24 26C28.169 26 33 27.9353 33 31V33Z" fill="white"/>
</mask>
<g mask="url(#mask0_124_2582)">
</g>
</svg>
