<svg width="25" height="24" viewBox="0 0 25 24" fill="none" xmlns="http://www.w3.org/2000/svg">
<path fill-rule="evenodd" clip-rule="evenodd" d="M15.126 14L14.846 13.73C15.826 12.59 16.416 11.11 16.416 9.5C16.416 5.91 13.506 3 9.91602 3C6.32602 3 3.41602 5.91 3.41602 9.5C3.41602 13.09 6.32602 16 9.91602 16C11.526 16 13.006 15.41 14.146 14.43L14.416 14.71V15.5L18.6703 19.7457C19.0823 20.1569 19.7494 20.1566 20.161 19.745C20.5726 19.3334 20.5729 18.6662 20.1618 18.2543L15.916 14H15.126ZM5.41602 9.5C5.41602 7.01 7.42602 5 9.91602 5C12.406 5 14.416 7.01 14.416 9.5C14.416 11.99 12.406 14 9.91602 14C7.42602 14 5.41602 11.99 5.41602 9.5Z" fill="#5B2020"/>
<mask id="mask0_124_2570" style="mask-type:luminance" maskUnits="userSpaceOnUse" x="3" y="3" width="18" height="18">
<path fill-rule="evenodd" clip-rule="evenodd" d="M15.126 14L14.846 13.73C15.826 12.59 16.416 11.11 16.416 9.5C16.416 5.91 13.506 3 9.91602 3C6.32602 3 3.41602 5.91 3.41602 9.5C3.41602 13.09 6.32602 16 9.91602 16C11.526 16 13.006 15.41 14.146 14.43L14.416 14.71V15.5L18.6703 19.7457C19.0823 20.1569 19.7494 20.1566 20.161 19.745C20.5726 19.3334 20.5729 18.6662 20.1618 18.2543L15.916 14H15.126ZM5.41602 9.5C5.41602 7.01 7.42602 5 9.91602 5C12.406 5 14.416 7.01 14.416 9.5C14.416 11.99 12.406 14 9.91602 14C7.42602 14 5.41602 11.99 5.41602 9.5Z" fill="white"/>
</mask>
<g mask="url(#mask0_124_2570)">
<rect x="0.416016" width="24" height="24" fill="#999999"/>
</g>
</svg>
