<svg width="195" height="17" viewBox="0 0 195 17" fill="none" xmlns="http://www.w3.org/2000/svg">
<path d="M0 8.35236C0 5.86352 3.54989 4.51365 8.39852 4.51365C11.3992 4.51365 14.4392 5.03814 15.6373 6.82437C16.2366 7.71789 15.2971 8.66873 14.2212 8.66873C13.1453 8.66873 12.1651 7.61276 11.152 7.25025C10.4366 6.9942 9.44859 6.93921 8.39852 6.93921C5.95256 6.93921 4.09103 7.23449 4.09103 8.56328C4.09103 11.2208 16.2559 7.88834 16.2559 13.098C16.2559 15.6501 12.2731 16.9156 8.37688 16.9156C3.8558 16.9156 1.7749 15.9235 0.848838 14.8288C0.111493 13.9572 1.07702 12.9293 2.21868 12.9293C3.36034 12.9293 4.50598 13.9965 5.60743 14.2968C6.35927 14.5018 7.33477 14.5323 8.26865 14.5323C10.7363 14.5323 12.4896 14.0471 12.4896 13.098C12.4896 10.2295 0 13.8995 0 8.35236Z" fill="white"/>
<path d="M18.0704 6.76466C18.0704 5.68454 18.946 4.80893 20.0262 4.80893C21.1088 4.80893 21.9854 5.68844 21.9819 6.77106L21.9666 11.4318C21.9666 13.4566 23.4818 14.8697 25.6464 14.8697C29.1097 14.8697 30.7331 12.0012 30.7331 10.8623L30.7477 6.79676C30.7516 5.69777 31.6436 4.80893 32.7426 4.80893C33.8444 4.80893 34.7376 5.70211 34.7376 6.80389V14.6922C34.7376 15.792 33.846 16.6836 32.7462 16.6836H31.3578C31.0247 16.6836 30.7548 16.4137 30.7548 16.0807C30.7548 15.4878 29.8593 15.1519 29.3732 15.4913C28.2766 16.2568 26.7281 16.8313 24.7806 16.8313C21.7935 16.8313 18.0704 15.1861 18.0704 11.4318L18.0704 6.76466Z" fill="white"/>
<path d="M36.742 10.9256C36.742 7.29777 40.0971 5.16749 44.3396 5.16749C44.8898 5.16749 45.4682 5.23715 46.0481 5.36128C47.9481 5.76803 50.9199 4.26558 50.9199 2.32247V2.21314C50.9199 1.10735 51.8164 0.210918 52.9222 0.210918C54.028 0.210918 54.9244 1.10734 54.9244 2.21314V14.6603C54.9244 15.7661 54.028 16.6625 52.9222 16.6625H51.5517C51.2028 16.6625 50.9199 16.3797 50.9199 16.0308C50.9199 15.4254 50.0662 15.1007 49.5711 15.4489C48.1611 16.4407 46.3685 16.8524 44.5994 16.8524C40.0971 16.8524 36.742 14.1104 36.742 10.9256ZM40.7681 10.9256C40.7681 13.4988 43.0842 14.6799 45.8981 14.6799C48.8203 14.6799 50.9199 12.4864 50.9199 11.1154C50.9199 9.36476 48.7337 7.27667 45.4219 7.27667C42.4998 7.27667 40.7681 8.64764 40.7681 10.9256Z" fill="white"/>
<path d="M57.0137 10.7568C57.0137 6.77047 61.1913 4.47146 65.3473 4.47146C69.4167 4.47146 73.3129 6.64392 73.3129 10.7568C73.3129 14.8275 69.3084 17 65.2174 17C61.0831 17 57.0137 14.7854 57.0137 10.7568ZM65.1741 6.7072C62.555 6.7072 61.1697 8.71092 61.1697 10.7568C61.1697 13.0769 62.8147 14.933 65.1741 14.933C67.5335 14.933 69.1569 13.0769 69.1569 10.7568C69.1569 8.47891 67.7716 6.7072 65.1741 6.7072Z" fill="white"/>
<path d="M82.3228 7.31886C81.6228 7.31886 81.0605 6.74173 81.0788 6.04198C81.0964 5.36758 81.6482 4.83002 82.3228 4.83002H82.525C83.3232 4.83002 83.9718 4.18562 83.9769 3.38738L83.9804 2.84674C83.9857 2.01068 84.5116 1.26654 85.2979 0.982323L85.3456 0.965075C86.6391 0.497485 88.0022 1.47028 87.9899 2.84571C87.9801 3.93607 88.8613 4.83002 89.9517 4.83002H90.9692C91.8295 4.83002 92.4303 5.68208 92.1414 6.4924C91.9647 6.98797 91.4954 7.31886 90.9692 7.31886H90.2086C88.9256 7.31886 87.8855 8.35896 87.8855 9.64199V11.8536C87.8855 13.1613 88.3834 14.1948 90.0284 14.1948H92.431C93.1125 14.1948 93.6649 14.7472 93.6649 15.4287C93.6649 16.1101 93.1125 16.6625 92.431 16.6625H88.7514C85.721 16.6625 83.9027 14.4268 83.9027 11.6849V8.72884C83.9027 7.95013 83.2714 7.31886 82.4927 7.31886H82.3228Z" fill="white"/>
<path d="M103.042 16.9367C98.5614 16.9367 94.8383 14.5744 94.8383 10.8834C94.8383 7.17122 98.6696 4.78784 103.15 4.78784C107.263 4.78784 111.094 6.74938 111.116 10.9256C111.116 11.53 110.57 11.9385 109.966 11.9405C108.7 11.9446 106.572 11.9533 104.523 11.9614C101.577 11.9732 100.052 14.9541 102.999 14.9541C104.254 14.9541 105.482 14.5981 106.432 13.9082C106.861 13.5972 107.381 13.4019 107.904 13.4868C109.006 13.6658 109.514 14.878 108.581 15.4918C107.195 16.4031 105.234 16.9367 103.042 16.9367ZM102.999 6.89702C102.244 6.89702 101.587 7.0583 101.037 7.33109C99.1 8.29233 100.801 10.4568 102.963 10.451C105.136 10.4452 106.886 8.21705 104.917 7.29739C104.364 7.03882 103.715 6.89702 102.999 6.89702Z" fill="white"/>
<path d="M112.207 13.2035C112.207 10.6514 115.346 9.34367 118.268 9.34367C120.14 9.34367 122.066 9.88798 123.572 10.629C124.052 10.8653 124.675 10.5325 124.675 9.99752C124.675 8.26799 123.939 7.61414 122.576 7.61414L117.547 7.61414C116.976 7.61414 116.463 7.26575 116.253 6.73519C115.891 5.82136 116.564 4.83002 117.547 4.83002L124.135 4.83002C124.523 4.83002 124.913 4.86024 125.286 4.96796C127.7 5.66575 128.638 7.47503 128.658 10.1241V14.6814C128.658 15.7872 127.762 16.6836 126.656 16.6836H125.246C124.919 16.6836 124.654 16.4186 124.654 16.0917C124.654 15.5934 124.048 15.2829 123.601 15.5048C122.002 16.3001 119.666 16.8102 117.922 16.8102C115.433 16.8102 112.207 15.7978 112.207 13.2035ZM119.394 11.2419C117.922 11.2419 116.19 11.6638 116.19 13.1402C116.19 14.7221 118.117 14.9963 119.242 14.9963C121.754 14.9963 123.914 13.6604 124.566 13.2396C124.621 13.2035 124.654 13.1423 124.654 13.0758C124.654 13.0106 124.622 12.95 124.568 12.9134C124.069 12.5753 122.012 11.2419 119.394 11.2419Z" fill="white"/>
<path d="M130.322 10.6935C130.322 6.87593 134.239 4.42928 138.677 4.42928C141.549 4.42928 144.434 5.45934 145.808 7.41474C146.482 8.37405 145.567 9.45463 144.395 9.46087C143.395 9.46619 142.592 8.63563 141.912 7.90398C141.17 7.10627 139.937 6.64392 138.504 6.64392C135.625 6.64392 134.174 8.79529 134.174 10.6935C134.174 13.1824 135.949 14.8697 138.569 14.8697C140.102 14.8697 141.375 14.191 142.089 13.2118C142.675 12.4082 143.475 11.5835 144.47 11.5888C145.625 11.595 146.514 12.6659 145.882 13.6334C144.506 15.74 141.624 16.9367 138.547 16.9367C134.131 16.9367 130.322 14.5112 130.322 10.6935Z" fill="white"/>
<path d="M148.61 2.22342C148.61 1.12359 149.502 0.232009 150.602 0.232009C151.702 0.232009 152.593 1.12359 152.593 2.22341V2.40786C152.593 4.3086 155.132 5.51844 157.011 5.23314C157.385 5.17633 157.767 5.1464 158.156 5.1464C161.858 5.1464 165.278 7.06576 165.278 10.4826V14.7036C165.278 15.7855 164.401 16.6625 163.319 16.6625C162.237 16.6625 161.36 15.7855 161.36 14.7036V10.4826C161.36 9.72332 160.797 7.10794 157.399 7.10794C154.962 7.10794 153.257 8.53328 152.72 10.1216C152.613 10.4394 152.593 10.778 152.593 11.1134V14.6711C152.593 15.7709 151.702 16.6625 150.602 16.6625C149.502 16.6625 148.61 15.7709 148.61 14.6711V2.22342Z" fill="white"/>
<path d="M176.748 2.36228C177.848 2.36228 178.739 3.25386 178.739 4.35368V14.6711C178.739 15.771 177.848 16.6625 176.748 16.6625C175.648 16.6625 174.757 15.771 174.757 14.6711V4.35368C174.757 3.25386 175.648 2.36228 176.748 2.36228Z" fill="white"/>
<path d="M186.125 7.93482C186.125 6.47636 184.943 5.29404 183.485 5.29404H182.331C181.509 5.29404 180.844 4.6283 180.844 3.80707C180.844 2.98584 181.509 2.3201 182.331 2.3201L193.513 2.3201C194.334 2.3201 195 2.98584 195 3.80707C195 4.6283 194.334 5.29404 193.513 5.29404H192.37C190.918 5.29404 189.74 6.47151 189.74 7.92399V14.8551C189.74 15.8533 188.931 16.6625 187.933 16.6625C186.934 16.6625 186.125 15.8533 186.125 14.8551V7.93482Z" fill="white"/>
</svg>
