<svg width="30" height="30" viewBox="0 0 30 30" fill="none" xmlns="http://www.w3.org/2000/svg">
<path d="M27.75 24.2083C27.75 26.1647 26.1647 27.75 24.2083 27.75H5.79167C3.83596 27.75 2.25 26.1647 2.25 24.2083V5.79167C2.25 3.83525 3.83596 2.25 5.79167 2.25H24.2083C26.1647 2.25 27.75 3.83525 27.75 5.79167V24.2083Z" fill="#1976D2"/>
<path d="M23.4554 10.7789C23.488 10.6719 23.5035 10.5728 23.4993 10.4842C23.4887 10.2278 23.3123 10.0415 22.8972 10.0415H21.0428C20.5746 10.0415 20.3585 10.3248 20.2325 10.6089C20.2325 10.6089 19.0765 12.9882 17.7441 14.5571C17.312 15.0112 17.0924 14.9998 16.8587 14.9998C16.7333 14.9998 16.4167 14.8483 16.4167 14.4325V10.7598C16.4167 10.2682 16.2941 10.0415 15.8982 10.0415H12.6051C12.3168 10.0415 12.1667 10.2682 12.1667 10.4955C12.1667 10.968 12.8027 11.0813 12.875 12.4052V14.9715C12.875 15.5948 12.7666 15.7082 12.5329 15.7082C11.9025 15.7082 10.6615 13.5832 9.83058 10.798C9.65067 10.2498 9.47075 10.0415 9.00254 10.0415H7.13042C6.58996 10.0415 6.5 10.3064 6.5 10.5898C6.5 11.1005 6.925 13.8615 9.24479 17.0363C10.9271 19.3384 13.1435 20.6665 15.1055 20.6665C16.2941 20.6665 16.416 20.364 16.416 19.8916V17.7864C16.4167 17.219 16.5463 17.1248 16.9245 17.1248C17.1944 17.1248 17.7448 17.3019 18.8073 18.5415C20.0327 19.9709 20.2551 20.6665 20.9578 20.6665H22.8122C23.2429 20.6665 23.4901 20.4859 23.5 20.1353C23.5021 20.046 23.4894 19.9461 23.4603 19.8349C23.3229 19.4269 22.6925 18.4296 21.9062 17.479C21.4706 16.9527 21.0407 16.4314 20.843 16.148C20.7106 15.9632 20.6603 15.8328 20.6667 15.7082C20.673 15.5771 20.741 15.4525 20.843 15.2782C20.8246 15.2782 23.2216 11.9129 23.4554 10.7789Z" fill="white"/>
</svg>
